<svg xmlns="http://www.w3.org/2000/svg" viewBox="0 0 225 73">
<style type="text/css">
	.st0{fill:#FFFFFF;}
	.st1{fill:#00A0DF;}
	.st2{fill-rule:evenodd;clip-rule:evenodd;fill:#FFFFFF;}
</style>
    <g>
	<path class="st0" d="M66.389,33.524h2.37V29.15h3.782v4.374h3.866v3.048h-3.866v6.237c0,0.734,0.113,1.284,0.339,1.651
		c0.226,0.367,0.686,0.55,1.383,0.55c0.47,0,1.147-0.094,2.032-0.282v2.879c-1.072,0.339-2.154,0.508-3.245,0.508
		c-1.449,0-2.526-0.39-3.231-1.171c-0.705-0.78-1.058-2.008-1.058-3.683v-6.688h-2.37V33.524z"/>
        <path class="st0" d="M78.213,27.316h3.782v8.128h0.057c0.865-1.542,2.286-2.314,4.261-2.314c1.712,0,2.982,0.475,3.81,1.425
		c0.828,0.95,1.242,2.46,1.242,4.529v8.833h-3.782v-8.212c0-0.978-0.183-1.759-0.55-2.342c-0.367-0.583-1.049-0.875-2.046-0.875
		c-0.96,0-1.698,0.315-2.215,0.945c-0.518,0.63-0.776,1.566-0.776,2.808v7.676h-3.782V27.316z"/>
        <path class="st0" d="M94.101,27.034h4.403v4.064h-4.403V27.034z M94.412,33.524h3.782v14.393h-3.782V33.524z"/>
        <path class="st0" d="M101.353,33.524h3.782v1.919h0.057c0.865-1.542,2.286-2.314,4.261-2.314c1.712,0,2.982,0.475,3.81,1.425
		c0.828,0.95,1.242,2.46,1.242,4.529v8.833h-3.782v-8.212c0-0.978-0.183-1.759-0.55-2.342c-0.367-0.583-1.049-0.875-2.046-0.875
		c-0.96,0-1.698,0.315-2.215,0.945c-0.518,0.63-0.776,1.566-0.776,2.808v7.676h-3.782V33.524z"/>
        <path class="st0" d="M117.552,27.316h3.781v11.909l4.939-5.701h4.995l-5.39,5.644l5.39,8.749h-4.628l-3.415-6.265l-1.891,1.891
		v4.374h-3.781V27.316z"/>
        <path class="st0" d="M138.492,48.312c-2.239,0-3.97-0.677-5.193-2.032c-1.223-1.355-1.834-3.217-1.834-5.588
		c0-2.371,0.607-4.223,1.82-5.559c1.214-1.336,2.949-2.004,5.207-2.004c2.258,0,3.993,0.668,5.207,2.004
		c1.214,1.336,1.82,3.189,1.82,5.559c0,2.37-0.612,4.233-1.834,5.588C142.461,47.635,140.731,48.312,138.492,48.312z
		 M138.492,36.459c-2.088,0-3.132,1.411-3.132,4.233c0,2.86,1.044,4.29,3.132,4.29c2.088,0,3.132-1.43,3.132-4.29
		C141.624,37.87,140.58,36.459,138.492,36.459z"/>
        <path class="st0" d="M147.946,33.524h3.781v2.173h0.057c0.658-1.618,1.834-2.427,3.528-2.427c0.526,0,0.941,0.038,1.242,0.113
		v3.584c-0.564-0.15-1.139-0.226-1.721-0.226c-0.979,0-1.741,0.334-2.286,1.002c-0.546,0.668-0.819,1.585-0.819,2.751v7.422h-3.781
		V33.524z"/>
        <path class="st0" d="M160.702,43.571c0.113,1.223,1.101,1.834,2.963,1.834c0.79,0,1.416-0.141,1.877-0.423
		c0.461-0.282,0.691-0.658,0.691-1.129c0-0.489-0.23-0.828-0.691-1.016c-0.461-0.188-1.209-0.348-2.244-0.48
		c-2.107-0.263-3.589-0.734-4.445-1.411c-0.856-0.677-1.284-1.655-1.284-2.935c0-1.524,0.555-2.719,1.665-3.584
		c1.11-0.865,2.625-1.298,4.544-1.298c3.669,0,5.663,1.505,5.983,4.515h-3.697c-0.132-1.035-0.95-1.552-2.455-1.552
		c-0.809,0-1.407,0.155-1.792,0.466c-0.386,0.31-0.579,0.682-0.579,1.115c0,0.489,0.24,0.837,0.72,1.044
		c0.48,0.207,1.312,0.377,2.498,0.508c2.126,0.282,3.579,0.748,4.36,1.397c0.781,0.649,1.171,1.576,1.171,2.78
		c0,1.524-0.583,2.723-1.749,3.598c-1.167,0.875-2.738,1.312-4.713,1.312c-2.088,0-3.636-0.372-4.643-1.115
		s-1.585-1.952-1.736-3.626H160.702z"/>
        <path class="st0" d="M170.804,33.524h3.923l2.427,9.793h0.057l3.217-9.793h3.443l2.907,9.793h0.057l2.568-9.793h3.951
		l-4.515,14.393h-3.81l-2.879-9.652h-0.084l-3.076,9.652h-3.81L170.804,33.524z"/>
        <path class="st0" d="M194.905,27.034h4.402v4.064h-4.402V27.034z M195.215,33.524h3.782v14.393h-3.782V33.524z"/>
        <path class="st0" d="M205.939,33.524v1.919h0.057c0.865-1.542,2.229-2.314,4.092-2.314c1.091,0,1.947,0.231,2.568,0.691
		c0.621,0.461,1.101,1.115,1.439,1.961h0.057c0.376-0.677,0.969-1.288,1.778-1.834c0.809-0.545,1.825-0.818,3.048-0.818
		c3.349,0,5.023,2.06,5.023,6.18v8.607h-3.782v-8.015c0-1.204-0.193-2.074-0.578-2.61c-0.386-0.536-1.002-0.804-1.849-0.804
		c-1.882,0-2.822,1.317-2.822,3.951v7.478h-3.781v-8.015c0-1.204-0.193-2.074-0.579-2.61c-0.386-0.536-1.002-0.804-1.848-0.804
		c-1.882,0-2.822,1.317-2.822,3.951v7.478h-3.782V33.524H205.939z"/>
</g>
    <g>
	<polygon class="st1" points="37.146,1 35.565,36.439 46.396,2.335"/>
        <polygon class="st1" points="23.952,16.804 16.437,22.239 33.674,38.131"/>
        <polygon class="st1" points="30.654,39.557 19.254,32.992 17.874,42.023"/>
        <polygon class="st1" points="0,58.477 5.575,65.81 32.365,41.85"/>
        <polygon class="st1" points="26.869,58.744 36.122,60.085 34.268,43.6"/>
        <polygon class="st1" points="51.811,71.597 59.314,66.164 36.569,43.015"/>
        <polygon class="st1" points="56.79,39.548 39.218,41.122 55.419,48.579"/>
        <polygon class="st1" points="61.52,27.616 55.945,20.294 37.386,38.683"/>
</g>
    <g>
	<polygon class="st2" points="202.231,60.007 199.643,52.258 198.534,52.258 196.079,60.096 193.949,52.406 191.983,52.406
		195.147,62.846 196.789,62.846 199.037,55.645 201.477,62.846 203.118,62.846 206.135,52.406 204.227,52.406"/>
        <polygon class="st2" points="209.58,58.204 213.736,58.204 213.736,56.695 209.58,56.695 209.58,53.915 214.091,53.915
		214.091,52.406 207.732,52.406 207.732,62.758 214.179,62.758 214.179,61.249 209.58,61.249"/>
        <path class="st2" d="M221.426,57.346c1.154-0.384,1.878-1.124,1.878-2.277c0-1.834-1.479-2.663-3.594-2.663h-3.534v10.353h3.756
		c2.159,0,3.712-0.888,3.712-2.81C223.644,58.528,222.772,57.716,221.426,57.346z M217.995,53.899h1.715
		c1.139,0,1.789,0.444,1.789,1.347c0,0.945-0.769,1.464-1.996,1.464h-1.508V53.899z M219.932,61.265h-1.937v-3.076h1.804
		c1.331,0,2.026,0.592,2.026,1.566C221.825,60.762,221.071,61.265,219.932,61.265z"/>
</g>
</svg>
